<mxfile host="Electron" agent="Mozilla/5.0 (X11; Linux x86_64) AppleWebKit/537.36 (KHTML, like Gecko) draw.io/26.1.1 Chrome/132.0.6834.210 Electron/34.5.0 Safari/537.36" version="26.1.1" pages="2">
  <diagram name="Page-1" id="l9JlZQkNLKE_KTfB_-UX">
    <mxGraphModel dx="3388" dy="1715" grid="1" gridSize="10" guides="1" tooltips="1" connect="1" arrows="1" fold="1" page="0" pageScale="1" pageWidth="1654" pageHeight="1169" math="0" shadow="0">
      <root>
        <mxCell id="0" />
        <mxCell id="1" parent="0" />
        <mxCell id="wPHAMOmzvQz0wvzDcsgE-15" value="USER" style="whiteSpace=wrap;html=1;align=center;" parent="1" vertex="1">
          <mxGeometry x="-330" y="880" width="100" height="40" as="geometry" />
        </mxCell>
        <mxCell id="wPHAMOmzvQz0wvzDcsgE-16" value="ITEM" style="whiteSpace=wrap;html=1;align=center;" parent="1" vertex="1">
          <mxGeometry x="-500" y="570" width="100" height="40" as="geometry" />
        </mxCell>
        <mxCell id="wPHAMOmzvQz0wvzDcsgE-18" value="CATEGORY" style="whiteSpace=wrap;html=1;align=center;" parent="1" vertex="1">
          <mxGeometry x="-510" y="110" width="100" height="40" as="geometry" />
        </mxCell>
        <mxCell id="wPHAMOmzvQz0wvzDcsgE-19" value="CONVERSATION" style="whiteSpace=wrap;html=1;align=center;" parent="1" vertex="1">
          <mxGeometry x="-970" y="720" width="100" height="40" as="geometry" />
        </mxCell>
        <mxCell id="wPHAMOmzvQz0wvzDcsgE-20" value="SHIPPING_DETAILS" style="whiteSpace=wrap;html=1;align=center;" parent="1" vertex="1">
          <mxGeometry x="-10" y="730" width="130" height="60" as="geometry" />
        </mxCell>
        <mxCell id="wPHAMOmzvQz0wvzDcsgE-49" value="address" style="ellipse;whiteSpace=wrap;html=1;align=center;" parent="1" vertex="1">
          <mxGeometry x="-300" y="940" width="80" height="30" as="geometry" />
        </mxCell>
        <mxCell id="wPHAMOmzvQz0wvzDcsgE-50" value="sex" style="ellipse;whiteSpace=wrap;html=1;align=center;" parent="1" vertex="1">
          <mxGeometry x="-400" y="965" width="90" height="30" as="geometry" />
        </mxCell>
        <mxCell id="wPHAMOmzvQz0wvzDcsgE-51" value="name" style="ellipse;whiteSpace=wrap;html=1;align=center;" parent="1" vertex="1">
          <mxGeometry x="-430" y="920" width="90" height="25" as="geometry" />
        </mxCell>
        <mxCell id="wPHAMOmzvQz0wvzDcsgE-55" value="first_name" style="ellipse;whiteSpace=wrap;html=1;align=center;" parent="1" vertex="1">
          <mxGeometry x="-480" y="950" width="70" height="30" as="geometry" />
        </mxCell>
        <mxCell id="wPHAMOmzvQz0wvzDcsgE-57" value="middle_name" style="ellipse;whiteSpace=wrap;html=1;align=center;" parent="1" vertex="1">
          <mxGeometry x="-540" y="930" width="70" height="30" as="geometry" />
        </mxCell>
        <mxCell id="wPHAMOmzvQz0wvzDcsgE-59" value="last_name" style="ellipse;whiteSpace=wrap;html=1;align=center;" parent="1" vertex="1">
          <mxGeometry x="-520" y="900" width="70" height="30" as="geometry" />
        </mxCell>
        <mxCell id="wPHAMOmzvQz0wvzDcsgE-61" value="" style="endArrow=none;html=1;rounded=0;exitX=0.5;exitY=1;exitDx=0;exitDy=0;entryX=0.5;entryY=0;entryDx=0;entryDy=0;" parent="1" source="wPHAMOmzvQz0wvzDcsgE-15" target="wPHAMOmzvQz0wvzDcsgE-50" edge="1">
          <mxGeometry relative="1" as="geometry">
            <mxPoint x="-380" y="990" as="sourcePoint" />
            <mxPoint x="-220" y="990" as="targetPoint" />
          </mxGeometry>
        </mxCell>
        <mxCell id="wPHAMOmzvQz0wvzDcsgE-62" value="" style="endArrow=none;html=1;rounded=0;exitX=0.878;exitY=0.96;exitDx=0;exitDy=0;exitPerimeter=0;entryX=0.5;entryY=0;entryDx=0;entryDy=0;" parent="1" source="wPHAMOmzvQz0wvzDcsgE-15" target="wPHAMOmzvQz0wvzDcsgE-49" edge="1">
          <mxGeometry relative="1" as="geometry">
            <mxPoint x="-380" y="990" as="sourcePoint" />
            <mxPoint x="-220" y="990" as="targetPoint" />
          </mxGeometry>
        </mxCell>
        <mxCell id="wPHAMOmzvQz0wvzDcsgE-63" value="score" style="ellipse;whiteSpace=wrap;html=1;align=center;" parent="1" vertex="1">
          <mxGeometry x="-220" y="975" width="60" height="20" as="geometry" />
        </mxCell>
        <mxCell id="wPHAMOmzvQz0wvzDcsgE-64" value="" style="endArrow=none;html=1;rounded=0;exitX=1;exitY=1;exitDx=0;exitDy=0;entryX=0.246;entryY=0.191;entryDx=0;entryDy=0;entryPerimeter=0;" parent="1" source="wPHAMOmzvQz0wvzDcsgE-15" target="wPHAMOmzvQz0wvzDcsgE-63" edge="1">
          <mxGeometry relative="1" as="geometry">
            <mxPoint x="-380" y="990" as="sourcePoint" />
            <mxPoint x="-220" y="990" as="targetPoint" />
          </mxGeometry>
        </mxCell>
        <mxCell id="wPHAMOmzvQz0wvzDcsgE-66" value="state" style="ellipse;whiteSpace=wrap;html=1;align=center;" parent="1" vertex="1">
          <mxGeometry x="-350" y="1010" width="70" height="20" as="geometry" />
        </mxCell>
        <mxCell id="wPHAMOmzvQz0wvzDcsgE-67" value="" style="endArrow=none;html=1;rounded=0;exitX=0.5;exitY=0;exitDx=0;exitDy=0;entryX=0.5;entryY=1;entryDx=0;entryDy=0;" parent="1" source="wPHAMOmzvQz0wvzDcsgE-66" target="wPHAMOmzvQz0wvzDcsgE-49" edge="1">
          <mxGeometry relative="1" as="geometry">
            <mxPoint x="-380" y="900" as="sourcePoint" />
            <mxPoint x="-220" y="900" as="targetPoint" />
          </mxGeometry>
        </mxCell>
        <mxCell id="wPHAMOmzvQz0wvzDcsgE-68" value="street" style="ellipse;whiteSpace=wrap;html=1;align=center;" parent="1" vertex="1">
          <mxGeometry x="-280" y="1020" width="70" height="20" as="geometry" />
        </mxCell>
        <mxCell id="wPHAMOmzvQz0wvzDcsgE-70" value="" style="endArrow=none;html=1;rounded=0;exitX=0.5;exitY=0;exitDx=0;exitDy=0;entryX=0.576;entryY=0.961;entryDx=0;entryDy=0;entryPerimeter=0;" parent="1" source="wPHAMOmzvQz0wvzDcsgE-68" target="wPHAMOmzvQz0wvzDcsgE-49" edge="1">
          <mxGeometry relative="1" as="geometry">
            <mxPoint x="-380" y="900" as="sourcePoint" />
            <mxPoint x="-220" y="900" as="targetPoint" />
          </mxGeometry>
        </mxCell>
        <mxCell id="wPHAMOmzvQz0wvzDcsgE-71" value="City" style="ellipse;whiteSpace=wrap;html=1;align=center;" parent="1" vertex="1">
          <mxGeometry x="-210" y="1015" width="60" height="20" as="geometry" />
        </mxCell>
        <mxCell id="wPHAMOmzvQz0wvzDcsgE-72" value="" style="endArrow=none;html=1;rounded=0;entryX=0.576;entryY=0.903;entryDx=0;entryDy=0;entryPerimeter=0;exitX=0.333;exitY=0;exitDx=0;exitDy=0;exitPerimeter=0;" parent="1" source="wPHAMOmzvQz0wvzDcsgE-71" target="wPHAMOmzvQz0wvzDcsgE-49" edge="1">
          <mxGeometry relative="1" as="geometry">
            <mxPoint x="-210" y="1040" as="sourcePoint" />
            <mxPoint x="-220" y="900" as="targetPoint" />
          </mxGeometry>
        </mxCell>
        <mxCell id="wPHAMOmzvQz0wvzDcsgE-74" value="" style="endArrow=none;html=1;rounded=0;entryX=0;entryY=0;entryDx=0;entryDy=0;exitX=1;exitY=0.75;exitDx=0;exitDy=0;" parent="1" source="wPHAMOmzvQz0wvzDcsgE-15" target="wPHAMOmzvQz0wvzDcsgE-80" edge="1">
          <mxGeometry relative="1" as="geometry">
            <mxPoint x="-380" y="900" as="sourcePoint" />
            <mxPoint x="-190.48000000000002" y="907.5250000000001" as="targetPoint" />
          </mxGeometry>
        </mxCell>
        <mxCell id="wPHAMOmzvQz0wvzDcsgE-75" value="" style="endArrow=none;html=1;rounded=0;exitX=0.583;exitY=0.946;exitDx=0;exitDy=0;exitPerimeter=0;" parent="1" source="wPHAMOmzvQz0wvzDcsgE-59" target="wPHAMOmzvQz0wvzDcsgE-51" edge="1">
          <mxGeometry relative="1" as="geometry">
            <mxPoint x="-380" y="900" as="sourcePoint" />
            <mxPoint x="-220" y="900" as="targetPoint" />
          </mxGeometry>
        </mxCell>
        <mxCell id="wPHAMOmzvQz0wvzDcsgE-76" value="" style="endArrow=none;html=1;rounded=0;exitX=1;exitY=0.5;exitDx=0;exitDy=0;entryX=0;entryY=1;entryDx=0;entryDy=0;" parent="1" source="wPHAMOmzvQz0wvzDcsgE-57" target="wPHAMOmzvQz0wvzDcsgE-51" edge="1">
          <mxGeometry relative="1" as="geometry">
            <mxPoint x="-380" y="900" as="sourcePoint" />
            <mxPoint x="-220" y="900" as="targetPoint" />
          </mxGeometry>
        </mxCell>
        <mxCell id="wPHAMOmzvQz0wvzDcsgE-77" value="" style="endArrow=none;html=1;rounded=0;exitX=0.5;exitY=0;exitDx=0;exitDy=0;entryX=0.42;entryY=0.962;entryDx=0;entryDy=0;entryPerimeter=0;" parent="1" source="wPHAMOmzvQz0wvzDcsgE-55" target="wPHAMOmzvQz0wvzDcsgE-51" edge="1">
          <mxGeometry relative="1" as="geometry">
            <mxPoint x="-380" y="900" as="sourcePoint" />
            <mxPoint x="-220" y="900" as="targetPoint" />
          </mxGeometry>
        </mxCell>
        <mxCell id="wPHAMOmzvQz0wvzDcsgE-78" value="" style="endArrow=none;html=1;rounded=0;exitX=0.7;exitY=0.092;exitDx=0;exitDy=0;exitPerimeter=0;entryX=0;entryY=0.75;entryDx=0;entryDy=0;" parent="1" source="wPHAMOmzvQz0wvzDcsgE-51" target="wPHAMOmzvQz0wvzDcsgE-15" edge="1">
          <mxGeometry relative="1" as="geometry">
            <mxPoint x="-380" y="900" as="sourcePoint" />
            <mxPoint x="-220" y="900" as="targetPoint" />
          </mxGeometry>
        </mxCell>
        <mxCell id="wPHAMOmzvQz0wvzDcsgE-79" value="phone_num" style="ellipse;shape=doubleEllipse;margin=3;whiteSpace=wrap;html=1;align=center;" parent="1" vertex="1">
          <mxGeometry x="-165" y="885" width="90" height="30" as="geometry" />
        </mxCell>
        <mxCell id="wPHAMOmzvQz0wvzDcsgE-80" value="user_id" style="ellipse;whiteSpace=wrap;html=1;align=center;fontStyle=4;" parent="1" vertex="1">
          <mxGeometry x="-210" y="940" width="90" height="30" as="geometry" />
        </mxCell>
        <mxCell id="wPHAMOmzvQz0wvzDcsgE-81" value="" style="endArrow=none;html=1;rounded=0;entryX=0;entryY=0.5;entryDx=0;entryDy=0;exitX=1;exitY=0.5;exitDx=0;exitDy=0;" parent="1" source="wPHAMOmzvQz0wvzDcsgE-15" target="wPHAMOmzvQz0wvzDcsgE-79" edge="1">
          <mxGeometry relative="1" as="geometry">
            <mxPoint x="-380" y="900" as="sourcePoint" />
            <mxPoint x="-220" y="900" as="targetPoint" />
          </mxGeometry>
        </mxCell>
        <mxCell id="wPHAMOmzvQz0wvzDcsgE-84" value="email" style="ellipse;whiteSpace=wrap;html=1;align=center;" parent="1" vertex="1">
          <mxGeometry x="-190" y="850" width="90" height="30" as="geometry" />
        </mxCell>
        <mxCell id="wPHAMOmzvQz0wvzDcsgE-85" value="" style="endArrow=none;html=1;rounded=0;entryX=0;entryY=0.5;entryDx=0;entryDy=0;" parent="1" target="wPHAMOmzvQz0wvzDcsgE-84" edge="1">
          <mxGeometry relative="1" as="geometry">
            <mxPoint x="-230" y="890" as="sourcePoint" />
            <mxPoint x="-220" y="900" as="targetPoint" />
          </mxGeometry>
        </mxCell>
        <mxCell id="wPHAMOmzvQz0wvzDcsgE-86" value="password" style="ellipse;whiteSpace=wrap;html=1;align=center;" parent="1" vertex="1">
          <mxGeometry x="-230" y="825" width="70" height="30" as="geometry" />
        </mxCell>
        <mxCell id="wPHAMOmzvQz0wvzDcsgE-87" value="" style="endArrow=none;html=1;rounded=0;entryX=0;entryY=1;entryDx=0;entryDy=0;exitX=1;exitY=0.25;exitDx=0;exitDy=0;" parent="1" source="wPHAMOmzvQz0wvzDcsgE-15" target="wPHAMOmzvQz0wvzDcsgE-86" edge="1">
          <mxGeometry relative="1" as="geometry">
            <mxPoint x="-380" y="900" as="sourcePoint" />
            <mxPoint x="-220" y="900" as="targetPoint" />
          </mxGeometry>
        </mxCell>
        <mxCell id="wPHAMOmzvQz0wvzDcsgE-88" value="role" style="ellipse;whiteSpace=wrap;html=1;align=center;" parent="1" vertex="1">
          <mxGeometry x="-450" y="890" width="60" height="20" as="geometry" />
        </mxCell>
        <mxCell id="wPHAMOmzvQz0wvzDcsgE-89" value="" style="endArrow=none;html=1;rounded=0;exitX=0.5;exitY=1;exitDx=0;exitDy=0;entryX=0;entryY=0.5;entryDx=0;entryDy=0;" parent="1" source="wPHAMOmzvQz0wvzDcsgE-88" target="wPHAMOmzvQz0wvzDcsgE-15" edge="1">
          <mxGeometry relative="1" as="geometry">
            <mxPoint x="-380" y="900" as="sourcePoint" />
            <mxPoint x="-220" y="900" as="targetPoint" />
          </mxGeometry>
        </mxCell>
        <mxCell id="wPHAMOmzvQz0wvzDcsgE-96" value="owen" style="shape=rhombus;perimeter=rhombusPerimeter;whiteSpace=wrap;html=1;align=center;" parent="1" vertex="1">
          <mxGeometry x="-610" y="740" width="120" height="60" as="geometry" />
        </mxCell>
        <mxCell id="wPHAMOmzvQz0wvzDcsgE-97" value="" style="shape=link;html=1;rounded=0;exitX=0.5;exitY=0;exitDx=0;exitDy=0;entryX=0.5;entryY=1;entryDx=0;entryDy=0;" parent="1" source="wPHAMOmzvQz0wvzDcsgE-96" target="wPHAMOmzvQz0wvzDcsgE-16" edge="1">
          <mxGeometry relative="1" as="geometry">
            <mxPoint x="-310" y="590" as="sourcePoint" />
            <mxPoint x="-150" y="590" as="targetPoint" />
          </mxGeometry>
        </mxCell>
        <mxCell id="wPHAMOmzvQz0wvzDcsgE-98" value="N" style="resizable=0;html=1;whiteSpace=wrap;align=right;verticalAlign=bottom;" parent="wPHAMOmzvQz0wvzDcsgE-97" connectable="0" vertex="1">
          <mxGeometry x="1" relative="1" as="geometry">
            <mxPoint x="-70" y="130" as="offset" />
          </mxGeometry>
        </mxCell>
        <mxCell id="wPHAMOmzvQz0wvzDcsgE-99" value="" style="endArrow=none;html=1;rounded=0;dashed=1;dashPattern=1 2;entryX=0.37;entryY=0.094;entryDx=0;entryDy=0;entryPerimeter=0;" parent="1" source="wPHAMOmzvQz0wvzDcsgE-96" target="wPHAMOmzvQz0wvzDcsgE-15" edge="1">
          <mxGeometry relative="1" as="geometry">
            <mxPoint x="-310" y="590" as="sourcePoint" />
            <mxPoint x="-150" y="590" as="targetPoint" />
          </mxGeometry>
        </mxCell>
        <mxCell id="wPHAMOmzvQz0wvzDcsgE-100" value="1" style="resizable=0;html=1;whiteSpace=wrap;align=right;verticalAlign=bottom;" parent="wPHAMOmzvQz0wvzDcsgE-99" connectable="0" vertex="1">
          <mxGeometry x="1" relative="1" as="geometry">
            <mxPoint x="-197" y="-94" as="offset" />
          </mxGeometry>
        </mxCell>
        <mxCell id="wPHAMOmzvQz0wvzDcsgE-111" value="item_id" style="ellipse;whiteSpace=wrap;html=1;align=center;fontStyle=4;" parent="1" vertex="1">
          <mxGeometry x="-670" y="530" width="100" height="40" as="geometry" />
        </mxCell>
        <mxCell id="wPHAMOmzvQz0wvzDcsgE-113" value="item_image" style="ellipse;whiteSpace=wrap;html=1;align=center;" parent="1" vertex="1">
          <mxGeometry x="-430" y="430" width="100" height="40" as="geometry" />
        </mxCell>
        <mxCell id="wPHAMOmzvQz0wvzDcsgE-114" value="price" style="ellipse;whiteSpace=wrap;html=1;align=center;" parent="1" vertex="1">
          <mxGeometry x="-350" y="520" width="100" height="40" as="geometry" />
        </mxCell>
        <mxCell id="wPHAMOmzvQz0wvzDcsgE-115" value="description" style="ellipse;whiteSpace=wrap;html=1;align=center;" parent="1" vertex="1">
          <mxGeometry x="-385" y="480" width="100" height="40" as="geometry" />
        </mxCell>
        <mxCell id="wPHAMOmzvQz0wvzDcsgE-117" value="item_state" style="ellipse;whiteSpace=wrap;html=1;align=center;" parent="1" vertex="1">
          <mxGeometry x="-680" y="570" width="100" height="40" as="geometry" />
        </mxCell>
        <mxCell id="wPHAMOmzvQz0wvzDcsgE-118" value="title" style="ellipse;whiteSpace=wrap;html=1;align=center;" parent="1" vertex="1">
          <mxGeometry x="-680" y="610" width="100" height="40" as="geometry" />
        </mxCell>
        <mxCell id="wPHAMOmzvQz0wvzDcsgE-119" value="" style="endArrow=none;html=1;rounded=0;exitX=1;exitY=0.5;exitDx=0;exitDy=0;" parent="1" source="wPHAMOmzvQz0wvzDcsgE-16" target="wPHAMOmzvQz0wvzDcsgE-114" edge="1">
          <mxGeometry relative="1" as="geometry">
            <mxPoint x="-310" y="590" as="sourcePoint" />
            <mxPoint x="-150" y="590" as="targetPoint" />
          </mxGeometry>
        </mxCell>
        <mxCell id="wPHAMOmzvQz0wvzDcsgE-120" value="" style="endArrow=none;html=1;rounded=0;exitX=1;exitY=0;exitDx=0;exitDy=0;entryX=0.032;entryY=0.75;entryDx=0;entryDy=0;entryPerimeter=0;" parent="1" source="wPHAMOmzvQz0wvzDcsgE-16" target="wPHAMOmzvQz0wvzDcsgE-115" edge="1">
          <mxGeometry relative="1" as="geometry">
            <mxPoint x="-310" y="590" as="sourcePoint" />
            <mxPoint x="-150" y="590" as="targetPoint" />
          </mxGeometry>
        </mxCell>
        <mxCell id="wPHAMOmzvQz0wvzDcsgE-122" value="" style="endArrow=none;html=1;rounded=0;exitX=0;exitY=1;exitDx=0;exitDy=0;entryX=0.75;entryY=0;entryDx=0;entryDy=0;" parent="1" source="wPHAMOmzvQz0wvzDcsgE-113" target="wPHAMOmzvQz0wvzDcsgE-16" edge="1">
          <mxGeometry relative="1" as="geometry">
            <mxPoint x="-310" y="590" as="sourcePoint" />
            <mxPoint x="-150" y="590" as="targetPoint" />
          </mxGeometry>
        </mxCell>
        <mxCell id="wPHAMOmzvQz0wvzDcsgE-125" value="" style="endArrow=none;html=1;rounded=0;exitX=1;exitY=1;exitDx=0;exitDy=0;entryX=0;entryY=0.25;entryDx=0;entryDy=0;" parent="1" source="wPHAMOmzvQz0wvzDcsgE-111" target="wPHAMOmzvQz0wvzDcsgE-16" edge="1">
          <mxGeometry relative="1" as="geometry">
            <mxPoint x="-310" y="590" as="sourcePoint" />
            <mxPoint x="-150" y="590" as="targetPoint" />
          </mxGeometry>
        </mxCell>
        <mxCell id="wPHAMOmzvQz0wvzDcsgE-126" value="" style="endArrow=none;html=1;rounded=0;exitX=0.92;exitY=0.656;exitDx=0;exitDy=0;exitPerimeter=0;entryX=0;entryY=0.5;entryDx=0;entryDy=0;" parent="1" source="wPHAMOmzvQz0wvzDcsgE-117" target="wPHAMOmzvQz0wvzDcsgE-16" edge="1">
          <mxGeometry relative="1" as="geometry">
            <mxPoint x="-310" y="590" as="sourcePoint" />
            <mxPoint x="-510" y="596" as="targetPoint" />
          </mxGeometry>
        </mxCell>
        <mxCell id="wPHAMOmzvQz0wvzDcsgE-128" value="" style="endArrow=none;html=1;rounded=0;entryX=0;entryY=1;entryDx=0;entryDy=0;" parent="1" source="wPHAMOmzvQz0wvzDcsgE-118" target="wPHAMOmzvQz0wvzDcsgE-16" edge="1">
          <mxGeometry relative="1" as="geometry">
            <mxPoint x="-310" y="590" as="sourcePoint" />
            <mxPoint x="-150" y="590" as="targetPoint" />
          </mxGeometry>
        </mxCell>
        <mxCell id="LBv7Q6NV7wOnJ5ve1A3O-4" value="rent_id" style="ellipse;whiteSpace=wrap;html=1;align=center;fontStyle=4;" parent="1" vertex="1">
          <mxGeometry x="-260" y="780" width="90" height="30" as="geometry" />
        </mxCell>
        <mxCell id="LBv7Q6NV7wOnJ5ve1A3O-9" value="" style="endArrow=none;html=1;rounded=0;exitX=0.904;exitY=1.026;exitDx=0;exitDy=0;exitPerimeter=0;entryX=0;entryY=0;entryDx=0;entryDy=0;" parent="1" source="LBv7Q6NV7wOnJ5ve1A3O-66" target="LBv7Q6NV7wOnJ5ve1A3O-4" edge="1">
          <mxGeometry relative="1" as="geometry">
            <mxPoint x="-248" y="737" as="sourcePoint" />
            <mxPoint x="-250" y="830" as="targetPoint" />
          </mxGeometry>
        </mxCell>
        <mxCell id="LBv7Q6NV7wOnJ5ve1A3O-12" value="rented_time" style="ellipse;whiteSpace=wrap;html=1;align=center;" parent="1" vertex="1">
          <mxGeometry x="-250" y="610" width="90" height="30" as="geometry" />
        </mxCell>
        <mxCell id="LBv7Q6NV7wOnJ5ve1A3O-14" value="end_data" style="ellipse;whiteSpace=wrap;html=1;align=center;" parent="1" vertex="1">
          <mxGeometry x="-140" y="630" width="90" height="30" as="geometry" />
        </mxCell>
        <mxCell id="LBv7Q6NV7wOnJ5ve1A3O-15" value="start_date" style="ellipse;whiteSpace=wrap;html=1;align=center;" parent="1" vertex="1">
          <mxGeometry x="-160" y="665" width="80" height="30" as="geometry" />
        </mxCell>
        <mxCell id="LBv7Q6NV7wOnJ5ve1A3O-16" value="" style="endArrow=none;html=1;rounded=0;entryX=0.5;entryY=1;entryDx=0;entryDy=0;exitX=0.857;exitY=0.083;exitDx=0;exitDy=0;exitPerimeter=0;" parent="1" source="LBv7Q6NV7wOnJ5ve1A3O-66" target="LBv7Q6NV7wOnJ5ve1A3O-12" edge="1">
          <mxGeometry relative="1" as="geometry">
            <mxPoint x="-248.96000000000004" y="689" as="sourcePoint" />
            <mxPoint x="-250" y="830" as="targetPoint" />
          </mxGeometry>
        </mxCell>
        <mxCell id="LBv7Q6NV7wOnJ5ve1A3O-18" value="" style="endArrow=none;html=1;rounded=0;entryX=0;entryY=0.5;entryDx=0;entryDy=0;exitX=1;exitY=0;exitDx=0;exitDy=0;" parent="1" source="LBv7Q6NV7wOnJ5ve1A3O-66" target="LBv7Q6NV7wOnJ5ve1A3O-14" edge="1">
          <mxGeometry relative="1" as="geometry">
            <mxPoint x="-218" y="699.02" as="sourcePoint" />
            <mxPoint x="-250" y="830" as="targetPoint" />
          </mxGeometry>
        </mxCell>
        <mxCell id="LBv7Q6NV7wOnJ5ve1A3O-19" value="" style="endArrow=none;html=1;rounded=0;exitX=1;exitY=0.167;exitDx=0;exitDy=0;exitPerimeter=0;entryX=0.049;entryY=0.851;entryDx=0;entryDy=0;entryPerimeter=0;" parent="1" source="LBv7Q6NV7wOnJ5ve1A3O-66" target="LBv7Q6NV7wOnJ5ve1A3O-15" edge="1">
          <mxGeometry relative="1" as="geometry">
            <mxPoint x="-236.2199999999998" y="715.0000000000001" as="sourcePoint" />
            <mxPoint x="-170" y="690" as="targetPoint" />
          </mxGeometry>
        </mxCell>
        <mxCell id="LBv7Q6NV7wOnJ5ve1A3O-20" value="for" style="shape=rhombus;perimeter=rhombusPerimeter;whiteSpace=wrap;html=1;align=center;" parent="1" vertex="1">
          <mxGeometry x="-740" y="680" width="90" height="40" as="geometry" />
        </mxCell>
        <mxCell id="LBv7Q6NV7wOnJ5ve1A3O-22" value="" style="endArrow=none;html=1;rounded=0;dashed=1;dashPattern=1 2;entryX=0;entryY=1;entryDx=0;entryDy=0;exitX=1;exitY=0.5;exitDx=0;exitDy=0;" parent="1" source="LBv7Q6NV7wOnJ5ve1A3O-20" target="wPHAMOmzvQz0wvzDcsgE-16" edge="1">
          <mxGeometry relative="1" as="geometry">
            <mxPoint x="-690" y="810" as="sourcePoint" />
            <mxPoint x="-530" y="810" as="targetPoint" />
          </mxGeometry>
        </mxCell>
        <mxCell id="LBv7Q6NV7wOnJ5ve1A3O-23" value="1" style="resizable=0;html=1;whiteSpace=wrap;align=right;verticalAlign=bottom;" parent="LBv7Q6NV7wOnJ5ve1A3O-22" connectable="0" vertex="1">
          <mxGeometry x="1" relative="1" as="geometry">
            <mxPoint x="-150" y="80" as="offset" />
          </mxGeometry>
        </mxCell>
        <mxCell id="LBv7Q6NV7wOnJ5ve1A3O-24" value="" style="shape=link;html=1;rounded=0;exitX=1;exitY=0;exitDx=0;exitDy=0;entryX=0;entryY=0.5;entryDx=0;entryDy=0;" parent="1" source="wPHAMOmzvQz0wvzDcsgE-19" target="LBv7Q6NV7wOnJ5ve1A3O-20" edge="1">
          <mxGeometry relative="1" as="geometry">
            <mxPoint x="-690" y="810" as="sourcePoint" />
            <mxPoint x="-780" y="710" as="targetPoint" />
          </mxGeometry>
        </mxCell>
        <mxCell id="LBv7Q6NV7wOnJ5ve1A3O-25" value="N" style="resizable=0;html=1;whiteSpace=wrap;align=right;verticalAlign=bottom;" parent="LBv7Q6NV7wOnJ5ve1A3O-24" connectable="0" vertex="1">
          <mxGeometry x="1" relative="1" as="geometry">
            <mxPoint x="10" y="20" as="offset" />
          </mxGeometry>
        </mxCell>
        <mxCell id="LBv7Q6NV7wOnJ5ve1A3O-26" value="has" style="shape=rhombus;perimeter=rhombusPerimeter;whiteSpace=wrap;html=1;align=center;" parent="1" vertex="1">
          <mxGeometry x="-720" y="850" width="95" height="40" as="geometry" />
        </mxCell>
        <mxCell id="LBv7Q6NV7wOnJ5ve1A3O-27" value="" style="endArrow=none;html=1;rounded=0;dashed=1;dashPattern=1 2;exitX=0;exitY=0;exitDx=0;exitDy=0;entryX=1;entryY=0.5;entryDx=0;entryDy=0;" parent="1" source="wPHAMOmzvQz0wvzDcsgE-15" target="LBv7Q6NV7wOnJ5ve1A3O-26" edge="1">
          <mxGeometry relative="1" as="geometry">
            <mxPoint x="-690" y="810" as="sourcePoint" />
            <mxPoint x="-530" y="810" as="targetPoint" />
          </mxGeometry>
        </mxCell>
        <mxCell id="LBv7Q6NV7wOnJ5ve1A3O-28" value="1" style="resizable=0;html=1;whiteSpace=wrap;align=right;verticalAlign=bottom;" parent="LBv7Q6NV7wOnJ5ve1A3O-27" connectable="0" vertex="1">
          <mxGeometry x="1" relative="1" as="geometry" />
        </mxCell>
        <mxCell id="LBv7Q6NV7wOnJ5ve1A3O-29" value="" style="shape=link;html=1;rounded=0;exitX=1;exitY=0.75;exitDx=0;exitDy=0;entryX=0.06;entryY=0.388;entryDx=0;entryDy=0;entryPerimeter=0;" parent="1" source="wPHAMOmzvQz0wvzDcsgE-19" target="LBv7Q6NV7wOnJ5ve1A3O-26" edge="1">
          <mxGeometry relative="1" as="geometry">
            <mxPoint x="-820" y="800" as="sourcePoint" />
            <mxPoint x="-530" y="810" as="targetPoint" />
          </mxGeometry>
        </mxCell>
        <mxCell id="LBv7Q6NV7wOnJ5ve1A3O-30" value="N" style="resizable=0;html=1;whiteSpace=wrap;align=right;verticalAlign=bottom;" parent="LBv7Q6NV7wOnJ5ve1A3O-29" connectable="0" vertex="1">
          <mxGeometry x="1" relative="1" as="geometry" />
        </mxCell>
        <mxCell id="LBv7Q6NV7wOnJ5ve1A3O-36" value="timestamp" style="ellipse;whiteSpace=wrap;html=1;align=center;" parent="1" vertex="1">
          <mxGeometry x="-1120" y="780" width="100" height="40" as="geometry" />
        </mxCell>
        <mxCell id="LBv7Q6NV7wOnJ5ve1A3O-38" value="" style="endArrow=none;html=1;rounded=0;entryX=0.132;entryY=0.992;entryDx=0;entryDy=0;entryPerimeter=0;" parent="1" source="LBv7Q6NV7wOnJ5ve1A3O-36" target="wPHAMOmzvQz0wvzDcsgE-19" edge="1">
          <mxGeometry relative="1" as="geometry">
            <mxPoint x="-690" y="810" as="sourcePoint" />
            <mxPoint x="-530" y="810" as="targetPoint" />
          </mxGeometry>
        </mxCell>
        <mxCell id="LBv7Q6NV7wOnJ5ve1A3O-41" value="" style="endArrow=none;html=1;rounded=0;exitX=0.4;exitY=0.875;exitDx=0;exitDy=0;exitPerimeter=0;" parent="1" source="outE8r-VnyRLuQ_6sBiH-4" target="wPHAMOmzvQz0wvzDcsgE-19" edge="1">
          <mxGeometry relative="1" as="geometry">
            <mxPoint x="-867.6999999999998" y="677.9999999999998" as="sourcePoint" />
            <mxPoint x="-530" y="810" as="targetPoint" />
          </mxGeometry>
        </mxCell>
        <mxCell id="LBv7Q6NV7wOnJ5ve1A3O-44" value="message" style="shape=ext;margin=3;double=1;whiteSpace=wrap;html=1;align=center;" parent="1" vertex="1">
          <mxGeometry x="-980" y="950" width="100" height="40" as="geometry" />
        </mxCell>
        <mxCell id="LBv7Q6NV7wOnJ5ve1A3O-45" value="contain" style="shape=rhombus;double=1;perimeter=rhombusPerimeter;whiteSpace=wrap;html=1;align=center;" parent="1" vertex="1">
          <mxGeometry x="-990" y="825" width="120" height="60" as="geometry" />
        </mxCell>
        <mxCell id="LBv7Q6NV7wOnJ5ve1A3O-46" value="" style="endArrow=none;html=1;rounded=0;dashed=1;dashPattern=1 2;exitX=0.5;exitY=1;exitDx=0;exitDy=0;entryX=0.5;entryY=0;entryDx=0;entryDy=0;" parent="1" source="wPHAMOmzvQz0wvzDcsgE-19" target="LBv7Q6NV7wOnJ5ve1A3O-45" edge="1">
          <mxGeometry relative="1" as="geometry">
            <mxPoint x="-690" y="970" as="sourcePoint" />
            <mxPoint x="-530" y="970" as="targetPoint" />
          </mxGeometry>
        </mxCell>
        <mxCell id="LBv7Q6NV7wOnJ5ve1A3O-47" value="1" style="resizable=0;html=1;whiteSpace=wrap;align=right;verticalAlign=bottom;" parent="LBv7Q6NV7wOnJ5ve1A3O-46" connectable="0" vertex="1">
          <mxGeometry x="1" relative="1" as="geometry">
            <mxPoint x="10" as="offset" />
          </mxGeometry>
        </mxCell>
        <mxCell id="LBv7Q6NV7wOnJ5ve1A3O-48" value="" style="shape=link;html=1;rounded=0;exitX=0.5;exitY=0;exitDx=0;exitDy=0;entryX=0.5;entryY=1;entryDx=0;entryDy=0;" parent="1" source="LBv7Q6NV7wOnJ5ve1A3O-44" target="LBv7Q6NV7wOnJ5ve1A3O-45" edge="1">
          <mxGeometry relative="1" as="geometry">
            <mxPoint x="-690" y="970" as="sourcePoint" />
            <mxPoint x="-910" y="1010" as="targetPoint" />
          </mxGeometry>
        </mxCell>
        <mxCell id="LBv7Q6NV7wOnJ5ve1A3O-49" value="N" style="resizable=0;html=1;whiteSpace=wrap;align=right;verticalAlign=bottom;" parent="LBv7Q6NV7wOnJ5ve1A3O-48" connectable="0" vertex="1">
          <mxGeometry x="1" relative="1" as="geometry">
            <mxPoint x="20" y="10" as="offset" />
          </mxGeometry>
        </mxCell>
        <mxCell id="LBv7Q6NV7wOnJ5ve1A3O-50" value="timestamp" style="ellipse;whiteSpace=wrap;html=1;align=center;" parent="1" vertex="1">
          <mxGeometry x="-1120" y="1040" width="100" height="40" as="geometry" />
        </mxCell>
        <mxCell id="LBv7Q6NV7wOnJ5ve1A3O-51" value="&lt;div&gt;message_content&lt;/div&gt;" style="ellipse;whiteSpace=wrap;html=1;align=center;" parent="1" vertex="1">
          <mxGeometry x="-1020" y="1090" width="100" height="40" as="geometry" />
        </mxCell>
        <mxCell id="LBv7Q6NV7wOnJ5ve1A3O-55" value="" style="endArrow=none;html=1;rounded=0;exitX=1;exitY=0.5;exitDx=0;exitDy=0;entryX=0;entryY=0.5;entryDx=0;entryDy=0;" parent="1" source="LBv7Q6NV7wOnJ5ve1A3O-44" target="LBv7Q6NV7wOnJ5ve1A3O-60" edge="1">
          <mxGeometry relative="1" as="geometry">
            <mxPoint x="-690" y="1140" as="sourcePoint" />
            <mxPoint x="-800.000000000005" y="1190.0000000000002" as="targetPoint" />
          </mxGeometry>
        </mxCell>
        <mxCell id="LBv7Q6NV7wOnJ5ve1A3O-56" value="" style="endArrow=none;html=1;rounded=0;exitX=1;exitY=1;exitDx=0;exitDy=0;entryX=0;entryY=0;entryDx=0;entryDy=0;" parent="1" source="LBv7Q6NV7wOnJ5ve1A3O-44" target="LBv7Q6NV7wOnJ5ve1A3O-61" edge="1">
          <mxGeometry relative="1" as="geometry">
            <mxPoint x="-690" y="1140" as="sourcePoint" />
            <mxPoint x="-831.2347523777214" y="1234.3826238111392" as="targetPoint" />
          </mxGeometry>
        </mxCell>
        <mxCell id="LBv7Q6NV7wOnJ5ve1A3O-58" value="" style="endArrow=none;html=1;rounded=0;exitX=0.25;exitY=1;exitDx=0;exitDy=0;" parent="1" source="LBv7Q6NV7wOnJ5ve1A3O-44" target="LBv7Q6NV7wOnJ5ve1A3O-51" edge="1">
          <mxGeometry relative="1" as="geometry">
            <mxPoint x="-690" y="1140" as="sourcePoint" />
            <mxPoint x="-530" y="1140" as="targetPoint" />
          </mxGeometry>
        </mxCell>
        <mxCell id="LBv7Q6NV7wOnJ5ve1A3O-59" value="" style="endArrow=none;html=1;rounded=0;exitX=0;exitY=0.75;exitDx=0;exitDy=0;entryX=0.8;entryY=0;entryDx=0;entryDy=0;entryPerimeter=0;" parent="1" source="LBv7Q6NV7wOnJ5ve1A3O-44" target="LBv7Q6NV7wOnJ5ve1A3O-50" edge="1">
          <mxGeometry relative="1" as="geometry">
            <mxPoint x="-690" y="1140" as="sourcePoint" />
            <mxPoint x="-530" y="1140" as="targetPoint" />
          </mxGeometry>
        </mxCell>
        <mxCell id="LBv7Q6NV7wOnJ5ve1A3O-60" value="conversaion_id" style="ellipse;whiteSpace=wrap;html=1;align=center;fontStyle=4;" parent="1" vertex="1">
          <mxGeometry x="-840" y="975" width="100" height="40" as="geometry" />
        </mxCell>
        <mxCell id="LBv7Q6NV7wOnJ5ve1A3O-61" value="message_id" style="ellipse;whiteSpace=wrap;html=1;align=center;fontStyle=4;" parent="1" vertex="1">
          <mxGeometry x="-890" y="1020" width="100" height="40" as="geometry" />
        </mxCell>
        <mxCell id="LBv7Q6NV7wOnJ5ve1A3O-65" value="item_category" style="shape=associativeEntity;whiteSpace=wrap;html=1;align=center;" parent="1" vertex="1">
          <mxGeometry x="-520" y="280" width="120" height="40" as="geometry" />
        </mxCell>
        <mxCell id="LBv7Q6NV7wOnJ5ve1A3O-66" value="rent" style="shape=associativeEntity;whiteSpace=wrap;html=1;align=center;" parent="1" vertex="1">
          <mxGeometry x="-390" y="695" width="110" height="45" as="geometry" />
        </mxCell>
        <mxCell id="LBv7Q6NV7wOnJ5ve1A3O-71" value="" style="endArrow=none;html=1;rounded=0;dashed=1;dashPattern=1 2;exitX=0.5;exitY=1;exitDx=0;exitDy=0;entryX=0.5;entryY=0;entryDx=0;entryDy=0;" parent="1" source="wPHAMOmzvQz0wvzDcsgE-18" target="LBv7Q6NV7wOnJ5ve1A3O-65" edge="1">
          <mxGeometry relative="1" as="geometry">
            <mxPoint x="-490" y="200" as="sourcePoint" />
            <mxPoint x="-340" y="370" as="targetPoint" />
          </mxGeometry>
        </mxCell>
        <mxCell id="LBv7Q6NV7wOnJ5ve1A3O-72" value="N" style="resizable=0;html=1;whiteSpace=wrap;align=right;verticalAlign=bottom;" parent="LBv7Q6NV7wOnJ5ve1A3O-71" connectable="0" vertex="1">
          <mxGeometry x="1" relative="1" as="geometry">
            <mxPoint x="-12" y="3" as="offset" />
          </mxGeometry>
        </mxCell>
        <mxCell id="LBv7Q6NV7wOnJ5ve1A3O-73" value="category_id" style="ellipse;whiteSpace=wrap;html=1;align=center;fontStyle=4;" parent="1" vertex="1">
          <mxGeometry x="-400" y="40" width="100" height="40" as="geometry" />
        </mxCell>
        <mxCell id="LBv7Q6NV7wOnJ5ve1A3O-74" value="category_name" style="ellipse;whiteSpace=wrap;html=1;align=center;" parent="1" vertex="1">
          <mxGeometry x="-510" y="-10" width="100" height="40" as="geometry" />
        </mxCell>
        <mxCell id="LBv7Q6NV7wOnJ5ve1A3O-75" value="description" style="ellipse;whiteSpace=wrap;html=1;align=center;" parent="1" vertex="1">
          <mxGeometry x="-640" y="40" width="100" height="40" as="geometry" />
        </mxCell>
        <mxCell id="LBv7Q6NV7wOnJ5ve1A3O-76" value="" style="endArrow=none;html=1;rounded=0;entryX=0.5;entryY=1;entryDx=0;entryDy=0;exitX=0.5;exitY=0;exitDx=0;exitDy=0;" parent="1" source="wPHAMOmzvQz0wvzDcsgE-18" target="LBv7Q6NV7wOnJ5ve1A3O-74" edge="1">
          <mxGeometry relative="1" as="geometry">
            <mxPoint x="-500" y="300" as="sourcePoint" />
            <mxPoint x="-340" y="300" as="targetPoint" />
          </mxGeometry>
        </mxCell>
        <mxCell id="LBv7Q6NV7wOnJ5ve1A3O-77" value="" style="endArrow=none;html=1;rounded=0;entryX=0.2;entryY=1;entryDx=0;entryDy=0;entryPerimeter=0;exitX=1;exitY=0;exitDx=0;exitDy=0;" parent="1" source="wPHAMOmzvQz0wvzDcsgE-18" target="LBv7Q6NV7wOnJ5ve1A3O-73" edge="1">
          <mxGeometry relative="1" as="geometry">
            <mxPoint x="-500" y="300" as="sourcePoint" />
            <mxPoint x="-340" y="300" as="targetPoint" />
          </mxGeometry>
        </mxCell>
        <mxCell id="LBv7Q6NV7wOnJ5ve1A3O-78" value="" style="endArrow=none;html=1;rounded=0;exitX=0.8;exitY=1;exitDx=0;exitDy=0;exitPerimeter=0;entryX=0;entryY=0;entryDx=0;entryDy=0;" parent="1" source="LBv7Q6NV7wOnJ5ve1A3O-75" target="wPHAMOmzvQz0wvzDcsgE-18" edge="1">
          <mxGeometry relative="1" as="geometry">
            <mxPoint x="-500" y="300" as="sourcePoint" />
            <mxPoint x="-340" y="300" as="targetPoint" />
          </mxGeometry>
        </mxCell>
        <mxCell id="LBv7Q6NV7wOnJ5ve1A3O-79" value="" style="shape=link;html=1;rounded=0;exitX=0.4;exitY=0;exitDx=0;exitDy=0;exitPerimeter=0;entryX=0.5;entryY=1;entryDx=0;entryDy=0;" parent="1" source="wPHAMOmzvQz0wvzDcsgE-16" target="LBv7Q6NV7wOnJ5ve1A3O-65" edge="1">
          <mxGeometry relative="1" as="geometry">
            <mxPoint x="-500" y="300" as="sourcePoint" />
            <mxPoint x="-340" y="300" as="targetPoint" />
          </mxGeometry>
        </mxCell>
        <mxCell id="LBv7Q6NV7wOnJ5ve1A3O-80" value="N" style="resizable=0;html=1;whiteSpace=wrap;align=right;verticalAlign=bottom;" parent="LBv7Q6NV7wOnJ5ve1A3O-79" connectable="0" vertex="1">
          <mxGeometry x="1" relative="1" as="geometry">
            <mxPoint x="-10" y="20" as="offset" />
          </mxGeometry>
        </mxCell>
        <mxCell id="LBv7Q6NV7wOnJ5ve1A3O-100" value="shipping" style="shape=rhombus;perimeter=rhombusPerimeter;whiteSpace=wrap;html=1;align=center;" parent="1" vertex="1">
          <mxGeometry x="-160" y="730" width="100" height="50" as="geometry" />
        </mxCell>
        <mxCell id="LBv7Q6NV7wOnJ5ve1A3O-101" value="" style="endArrow=none;html=1;rounded=0;exitX=1;exitY=0.25;exitDx=0;exitDy=0;entryX=0.076;entryY=0.524;entryDx=0;entryDy=0;entryPerimeter=0;" parent="1" source="LBv7Q6NV7wOnJ5ve1A3O-66" target="LBv7Q6NV7wOnJ5ve1A3O-100" edge="1">
          <mxGeometry relative="1" as="geometry">
            <mxPoint x="-90" y="810" as="sourcePoint" />
            <mxPoint x="70" y="810" as="targetPoint" />
          </mxGeometry>
        </mxCell>
        <mxCell id="LBv7Q6NV7wOnJ5ve1A3O-102" value="1" style="resizable=0;html=1;whiteSpace=wrap;align=right;verticalAlign=bottom;" parent="LBv7Q6NV7wOnJ5ve1A3O-101" connectable="0" vertex="1">
          <mxGeometry x="1" relative="1" as="geometry" />
        </mxCell>
        <mxCell id="LBv7Q6NV7wOnJ5ve1A3O-103" value="" style="endArrow=none;html=1;rounded=0;exitX=0;exitY=0.5;exitDx=0;exitDy=0;entryX=1;entryY=0.5;entryDx=0;entryDy=0;" parent="1" source="wPHAMOmzvQz0wvzDcsgE-20" target="LBv7Q6NV7wOnJ5ve1A3O-100" edge="1">
          <mxGeometry relative="1" as="geometry">
            <mxPoint x="-90" y="810" as="sourcePoint" />
            <mxPoint x="70" y="810" as="targetPoint" />
          </mxGeometry>
        </mxCell>
        <mxCell id="LBv7Q6NV7wOnJ5ve1A3O-104" value="1" style="resizable=0;html=1;whiteSpace=wrap;align=right;verticalAlign=bottom;" parent="LBv7Q6NV7wOnJ5ve1A3O-103" connectable="0" vertex="1">
          <mxGeometry x="1" relative="1" as="geometry" />
        </mxCell>
        <mxCell id="LBv7Q6NV7wOnJ5ve1A3O-106" value="last_update" style="ellipse;whiteSpace=wrap;html=1;align=center;" parent="1" vertex="1">
          <mxGeometry x="-50" y="810" width="100" height="40" as="geometry" />
        </mxCell>
        <mxCell id="LBv7Q6NV7wOnJ5ve1A3O-107" value="current_status" style="ellipse;whiteSpace=wrap;html=1;align=center;" parent="1" vertex="1">
          <mxGeometry x="160" y="845" width="100" height="40" as="geometry" />
        </mxCell>
        <mxCell id="LBv7Q6NV7wOnJ5ve1A3O-108" value="tracking_num" style="ellipse;whiteSpace=wrap;html=1;align=center;" parent="1" vertex="1">
          <mxGeometry x="170" y="790" width="100" height="40" as="geometry" />
        </mxCell>
        <mxCell id="LBv7Q6NV7wOnJ5ve1A3O-109" value="carrier" style="ellipse;whiteSpace=wrap;html=1;align=center;" parent="1" vertex="1">
          <mxGeometry x="200" y="730" width="100" height="40" as="geometry" />
        </mxCell>
        <mxCell id="LBv7Q6NV7wOnJ5ve1A3O-110" value="estimated_time" style="ellipse;whiteSpace=wrap;html=1;align=center;" parent="1" vertex="1">
          <mxGeometry x="240" y="680" width="100" height="40" as="geometry" />
        </mxCell>
        <mxCell id="LBv7Q6NV7wOnJ5ve1A3O-113" value="shipping_id" style="ellipse;whiteSpace=wrap;html=1;align=center;fontStyle=4;" parent="1" vertex="1">
          <mxGeometry x="170" y="650" width="100" height="40" as="geometry" />
        </mxCell>
        <mxCell id="LBv7Q6NV7wOnJ5ve1A3O-114" value="" style="endArrow=none;html=1;rounded=0;exitX=0.607;exitY=1.017;exitDx=0;exitDy=0;exitPerimeter=0;" parent="1" source="wPHAMOmzvQz0wvzDcsgE-20" target="LBv7Q6NV7wOnJ5ve1A3O-107" edge="1">
          <mxGeometry relative="1" as="geometry">
            <mxPoint x="210" y="810" as="sourcePoint" />
            <mxPoint x="370" y="810" as="targetPoint" />
          </mxGeometry>
        </mxCell>
        <mxCell id="LBv7Q6NV7wOnJ5ve1A3O-115" value="" style="endArrow=none;html=1;rounded=0;exitX=0.931;exitY=0.966;exitDx=0;exitDy=0;exitPerimeter=0;entryX=0.082;entryY=0.207;entryDx=0;entryDy=0;entryPerimeter=0;" parent="1" source="wPHAMOmzvQz0wvzDcsgE-20" target="LBv7Q6NV7wOnJ5ve1A3O-108" edge="1">
          <mxGeometry relative="1" as="geometry">
            <mxPoint x="210" y="810" as="sourcePoint" />
            <mxPoint x="370" y="810" as="targetPoint" />
          </mxGeometry>
        </mxCell>
        <mxCell id="LBv7Q6NV7wOnJ5ve1A3O-116" value="" style="endArrow=none;html=1;rounded=0;entryX=0;entryY=0.5;entryDx=0;entryDy=0;exitX=1.013;exitY=0.621;exitDx=0;exitDy=0;exitPerimeter=0;" parent="1" source="wPHAMOmzvQz0wvzDcsgE-20" target="LBv7Q6NV7wOnJ5ve1A3O-109" edge="1">
          <mxGeometry relative="1" as="geometry">
            <mxPoint x="210" y="810" as="sourcePoint" />
            <mxPoint x="400" y="720" as="targetPoint" />
          </mxGeometry>
        </mxCell>
        <mxCell id="LBv7Q6NV7wOnJ5ve1A3O-117" value="" style="endArrow=none;html=1;rounded=0;entryX=0.031;entryY=0.741;entryDx=0;entryDy=0;entryPerimeter=0;exitX=1;exitY=0.25;exitDx=0;exitDy=0;" parent="1" source="wPHAMOmzvQz0wvzDcsgE-20" target="LBv7Q6NV7wOnJ5ve1A3O-110" edge="1">
          <mxGeometry relative="1" as="geometry">
            <mxPoint x="210" y="810" as="sourcePoint" />
            <mxPoint x="370" y="810" as="targetPoint" />
          </mxGeometry>
        </mxCell>
        <mxCell id="LBv7Q6NV7wOnJ5ve1A3O-118" value="" style="endArrow=none;html=1;rounded=0;entryX=0.279;entryY=1.034;entryDx=0;entryDy=0;entryPerimeter=0;exitX=0.75;exitY=0;exitDx=0;exitDy=0;" parent="1" source="wPHAMOmzvQz0wvzDcsgE-20" target="LBv7Q6NV7wOnJ5ve1A3O-113" edge="1">
          <mxGeometry relative="1" as="geometry">
            <mxPoint x="210" y="810" as="sourcePoint" />
            <mxPoint x="370" y="810" as="targetPoint" />
          </mxGeometry>
        </mxCell>
        <mxCell id="LBv7Q6NV7wOnJ5ve1A3O-120" value="" style="endArrow=none;html=1;rounded=0;exitX=0.448;exitY=0.983;exitDx=0;exitDy=0;exitPerimeter=0;entryX=0.603;entryY=-0.06;entryDx=0;entryDy=0;entryPerimeter=0;" parent="1" source="wPHAMOmzvQz0wvzDcsgE-20" target="LBv7Q6NV7wOnJ5ve1A3O-106" edge="1">
          <mxGeometry relative="1" as="geometry">
            <mxPoint x="210" y="810" as="sourcePoint" />
            <mxPoint x="370" y="810" as="targetPoint" />
          </mxGeometry>
        </mxCell>
        <mxCell id="LBv7Q6NV7wOnJ5ve1A3O-121" value="delivery_address" style="ellipse;whiteSpace=wrap;html=1;align=center;" parent="1" vertex="1">
          <mxGeometry x="50" y="845" width="100" height="40" as="geometry" />
        </mxCell>
        <mxCell id="LBv7Q6NV7wOnJ5ve1A3O-122" value="" style="endArrow=none;html=1;rounded=0;entryX=0.41;entryY=0.015;entryDx=0;entryDy=0;entryPerimeter=0;exitX=0.57;exitY=1.035;exitDx=0;exitDy=0;exitPerimeter=0;" parent="1" source="wPHAMOmzvQz0wvzDcsgE-20" target="LBv7Q6NV7wOnJ5ve1A3O-121" edge="1">
          <mxGeometry relative="1" as="geometry">
            <mxPoint x="30" y="730" as="sourcePoint" />
            <mxPoint x="190" y="730" as="targetPoint" />
          </mxGeometry>
        </mxCell>
        <mxCell id="outE8r-VnyRLuQ_6sBiH-4" value="conversation_id" style="ellipse;whiteSpace=wrap;html=1;align=center;fontStyle=4;" parent="1" vertex="1">
          <mxGeometry x="-960" y="630" width="100" height="40" as="geometry" />
        </mxCell>
        <mxCell id="0YigIFW-FMcc_VuHgMUq-1" value="" style="endArrow=none;html=1;rounded=0;dashed=1;dashPattern=1 2;exitX=0.75;exitY=1;exitDx=0;exitDy=0;entryX=0.07;entryY=0.06;entryDx=0;entryDy=0;entryPerimeter=0;" parent="1" source="wPHAMOmzvQz0wvzDcsgE-16" target="LBv7Q6NV7wOnJ5ve1A3O-66" edge="1">
          <mxGeometry relative="1" as="geometry">
            <mxPoint x="-430" y="620" as="sourcePoint" />
            <mxPoint x="-320" y="740" as="targetPoint" />
          </mxGeometry>
        </mxCell>
        <mxCell id="0YigIFW-FMcc_VuHgMUq-2" value="N" style="resizable=0;html=1;whiteSpace=wrap;align=right;verticalAlign=bottom;" parent="0YigIFW-FMcc_VuHgMUq-1" connectable="0" vertex="1">
          <mxGeometry x="1" relative="1" as="geometry">
            <mxPoint x="7" y="-13" as="offset" />
          </mxGeometry>
        </mxCell>
        <mxCell id="0YigIFW-FMcc_VuHgMUq-3" value="" style="endArrow=none;html=1;rounded=0;dashed=1;dashPattern=1 2;exitX=0.367;exitY=-0.033;exitDx=0;exitDy=0;exitPerimeter=0;entryX=0.5;entryY=1;entryDx=0;entryDy=0;" parent="1" target="LBv7Q6NV7wOnJ5ve1A3O-66" edge="1">
          <mxGeometry relative="1" as="geometry">
            <mxPoint x="-285.81999999999994" y="885.0000000000001" as="sourcePoint" />
            <mxPoint x="-300" y="760" as="targetPoint" />
          </mxGeometry>
        </mxCell>
        <mxCell id="0YigIFW-FMcc_VuHgMUq-4" value="N" style="resizable=0;html=1;whiteSpace=wrap;align=right;verticalAlign=bottom;" parent="0YigIFW-FMcc_VuHgMUq-3" connectable="0" vertex="1">
          <mxGeometry x="1" relative="1" as="geometry">
            <mxPoint x="20" y="15" as="offset" />
          </mxGeometry>
        </mxCell>
        <mxCell id="aZTp0AiIuB95CZH_338X-19" value="REVIEW" style="whiteSpace=wrap;html=1;align=center;" vertex="1" parent="1">
          <mxGeometry x="440" y="530" width="100" height="40" as="geometry" />
        </mxCell>
        <mxCell id="aZTp0AiIuB95CZH_338X-21" value="review_id" style="ellipse;whiteSpace=wrap;html=1;align=center;fontStyle=4;" vertex="1" parent="1">
          <mxGeometry x="510" y="440" width="100" height="40" as="geometry" />
        </mxCell>
        <mxCell id="aZTp0AiIuB95CZH_338X-22" value="rating" style="ellipse;whiteSpace=wrap;html=1;align=center;" vertex="1" parent="1">
          <mxGeometry x="310" y="440" width="100" height="40" as="geometry" />
        </mxCell>
        <mxCell id="aZTp0AiIuB95CZH_338X-23" value="comment" style="ellipse;whiteSpace=wrap;html=1;align=center;" vertex="1" parent="1">
          <mxGeometry x="410" y="440" width="100" height="40" as="geometry" />
        </mxCell>
        <mxCell id="aZTp0AiIuB95CZH_338X-24" value="" style="endArrow=none;html=1;rounded=0;exitX=0.365;exitY=0.929;exitDx=0;exitDy=0;exitPerimeter=0;entryX=0.75;entryY=0;entryDx=0;entryDy=0;" edge="1" parent="1" source="aZTp0AiIuB95CZH_338X-21" target="aZTp0AiIuB95CZH_338X-19">
          <mxGeometry relative="1" as="geometry">
            <mxPoint x="590" y="630" as="sourcePoint" />
            <mxPoint x="750" y="630" as="targetPoint" />
          </mxGeometry>
        </mxCell>
        <mxCell id="aZTp0AiIuB95CZH_338X-25" value="" style="endArrow=none;html=1;rounded=0;exitX=0.61;exitY=1.042;exitDx=0;exitDy=0;entryX=0.057;entryY=0.075;entryDx=0;entryDy=0;entryPerimeter=0;exitPerimeter=0;" edge="1" parent="1" source="aZTp0AiIuB95CZH_338X-23" target="aZTp0AiIuB95CZH_338X-19">
          <mxGeometry relative="1" as="geometry">
            <mxPoint x="590" y="630" as="sourcePoint" />
            <mxPoint x="750" y="630" as="targetPoint" />
          </mxGeometry>
        </mxCell>
        <mxCell id="aZTp0AiIuB95CZH_338X-26" value="" style="endArrow=none;html=1;rounded=0;exitX=0.713;exitY=0.967;exitDx=0;exitDy=0;entryX=0;entryY=0;entryDx=0;entryDy=0;exitPerimeter=0;" edge="1" parent="1" source="aZTp0AiIuB95CZH_338X-22" target="aZTp0AiIuB95CZH_338X-19">
          <mxGeometry relative="1" as="geometry">
            <mxPoint x="590" y="630" as="sourcePoint" />
            <mxPoint x="750" y="630" as="targetPoint" />
          </mxGeometry>
        </mxCell>
        <mxCell id="aZTp0AiIuB95CZH_338X-31" value="" style="endArrow=none;html=1;rounded=0;dashed=1;dashPattern=1 2;exitX=1;exitY=0.75;exitDx=0;exitDy=0;entryX=0;entryY=0.5;entryDx=0;entryDy=0;" edge="1" parent="1" source="wPHAMOmzvQz0wvzDcsgE-16" target="aZTp0AiIuB95CZH_338X-33">
          <mxGeometry relative="1" as="geometry">
            <mxPoint x="-750" y="810" as="sourcePoint" />
            <mxPoint x="-30" y="540" as="targetPoint" />
          </mxGeometry>
        </mxCell>
        <mxCell id="aZTp0AiIuB95CZH_338X-32" value="1" style="resizable=0;html=1;whiteSpace=wrap;align=right;verticalAlign=bottom;" connectable="0" vertex="1" parent="aZTp0AiIuB95CZH_338X-31">
          <mxGeometry x="1" relative="1" as="geometry" />
        </mxCell>
        <mxCell id="aZTp0AiIuB95CZH_338X-33" value="has" style="shape=rhombus;perimeter=rhombusPerimeter;whiteSpace=wrap;html=1;align=center;" vertex="1" parent="1">
          <mxGeometry x="-20" y="490" width="120" height="60" as="geometry" />
        </mxCell>
        <mxCell id="aZTp0AiIuB95CZH_338X-34" value="" style="shape=link;html=1;rounded=0;exitX=0;exitY=0.5;exitDx=0;exitDy=0;entryX=1;entryY=0.5;entryDx=0;entryDy=0;" edge="1" parent="1" source="aZTp0AiIuB95CZH_338X-19" target="aZTp0AiIuB95CZH_338X-33">
          <mxGeometry relative="1" as="geometry">
            <mxPoint x="-750" y="810" as="sourcePoint" />
            <mxPoint x="-590" y="810" as="targetPoint" />
          </mxGeometry>
        </mxCell>
        <mxCell id="aZTp0AiIuB95CZH_338X-35" value="N" style="resizable=0;html=1;whiteSpace=wrap;align=right;verticalAlign=bottom;" connectable="0" vertex="1" parent="aZTp0AiIuB95CZH_338X-34">
          <mxGeometry x="1" relative="1" as="geometry">
            <mxPoint x="11" y="-10" as="offset" />
          </mxGeometry>
        </mxCell>
        <mxCell id="aZTp0AiIuB95CZH_338X-36" value="" style="endArrow=none;html=1;rounded=0;dashed=1;dashPattern=1 2;exitX=1;exitY=0.75;exitDx=0;exitDy=0;entryX=0;entryY=0.5;entryDx=0;entryDy=0;" edge="1" parent="1" source="wPHAMOmzvQz0wvzDcsgE-15" target="aZTp0AiIuB95CZH_338X-38">
          <mxGeometry relative="1" as="geometry">
            <mxPoint y="930" as="sourcePoint" />
            <mxPoint x="160" y="930" as="targetPoint" />
          </mxGeometry>
        </mxCell>
        <mxCell id="aZTp0AiIuB95CZH_338X-37" value="1" style="resizable=0;html=1;whiteSpace=wrap;align=right;verticalAlign=bottom;" connectable="0" vertex="1" parent="aZTp0AiIuB95CZH_338X-36">
          <mxGeometry x="1" relative="1" as="geometry" />
        </mxCell>
        <mxCell id="aZTp0AiIuB95CZH_338X-38" value="make" style="shape=rhombus;perimeter=rhombusPerimeter;whiteSpace=wrap;html=1;align=center;" vertex="1" parent="1">
          <mxGeometry x="230" y="925" width="120" height="60" as="geometry" />
        </mxCell>
        <mxCell id="aZTp0AiIuB95CZH_338X-39" value="" style="shape=link;html=1;rounded=0;exitX=0.67;exitY=1.036;exitDx=0;exitDy=0;exitPerimeter=0;entryX=1;entryY=0.5;entryDx=0;entryDy=0;" edge="1" parent="1" source="aZTp0AiIuB95CZH_338X-19" target="aZTp0AiIuB95CZH_338X-38">
          <mxGeometry relative="1" as="geometry">
            <mxPoint y="750" as="sourcePoint" />
            <mxPoint x="160" y="750" as="targetPoint" />
          </mxGeometry>
        </mxCell>
        <mxCell id="aZTp0AiIuB95CZH_338X-40" value="N" style="resizable=0;html=1;whiteSpace=wrap;align=right;verticalAlign=bottom;" connectable="0" vertex="1" parent="aZTp0AiIuB95CZH_338X-39">
          <mxGeometry x="1" relative="1" as="geometry" />
        </mxCell>
      </root>
    </mxGraphModel>
  </diagram>
  <diagram id="WIQKzam3GulNSTE58p_0" name="Page-2">
    <mxGraphModel dx="1434" dy="871" grid="1" gridSize="10" guides="1" tooltips="1" connect="1" arrows="1" fold="1" page="1" pageScale="1" pageWidth="850" pageHeight="1100" math="0" shadow="0">
      <root>
        <mxCell id="0" />
        <mxCell id="1" parent="0" />
      </root>
    </mxGraphModel>
  </diagram>
</mxfile>
